<!-- <svg xmlns="http://www.w3.org/2000/svg" class="icon" width="24" height="24" viewBox="0 0 24 24" fill="none" stroke="currentColor" stroke-width="2" stroke-linecap="round" stroke-linejoin="round" class="icon icon-tabler icons-tabler-outline icon-tabler-bulb">
  <path stroke="none" d="M0 0h24v24H0z" fill="none" />
  <path d="M3 12h1m8 -9v1m8 8h1m-15.4 -6.4l.7 .7m12.1 -.7l-.7 .7" />
  <path d="M9 16a5 5 0 1 1 6 0a3.5 3.5 0 0 0 -1 3a2 2 0 0 1 -4 0a3.5 3.5 0 0 0 -1 -3" />
  <path d="M9.7 17l4.6 0" />
</svg> -->

<svg  xmlns="http://www.w3.org/2000/svg"  width="24"  height="24"  viewBox="0 0 24 24"  fill="none"  stroke="currentColor"  stroke-width="2"  stroke-linecap="round"  stroke-linejoin="round"  class="icon icon-tabler icons-tabler-outline icon-tabler-mood-smile"><path stroke="none" d="M0 0h24v24H0z" fill="none"/><path d="M12 12m-9 0a9 9 0 1 0 18 0a9 9 0 1 0 -18 0" /><path d="M9 10l.01 0" /><path d="M15 10l.01 0" /><path d="M9.5 15a3.5 3.5 0 0 0 5 0" /></svg>